# xmcd
#
# Track frame offsets: 
#        150
#        20395
#        37045
#        56690
#        72740
#        86390
#        102590
#        120290
#        135296
#
# Disc length: 2001 seconds
#
# Revision: 0
# Processed by: cddbd v1.5.2PL0 Copyright (c) Steve Scherf et al.
# Submitted via: ExactAudioCopy v0.99pb5
#
DISCID=7407cf09
DTITLE=Sands Acoustic - Sands Acoustic
DYEAR=1900
DGENRE=Blues
TTITLE0=Cuts like a knife
TTITLE1=Talking about the revolution
TTITLE2=Down on my knees
TTITLE3=I belong to you
TTITLE4=New soul
TTITLE5=Like a virgin
TTITLE6=Superstition
TTITLE7=Sweet home Chicago
TTITLE8=Spirit in the sky
EXTD=
EXTT0=
EXTT1=
EXTT2=
EXTT3=
EXTT4=
EXTT5=
EXTT6=
EXTT7=
EXTT8=
PLAYORDER=
